# xmcd
#
# Track frame offsets: 
#        150
#        16970
#        34007
#        46967
#        58975
#        71437
#        81452
#        94442
#        110875
#        122492
#
# Disc length: 1815 seconds
#
# Revision: 1
# Processed by: cddbd v1.5.2PL0 Copyright (c) Steve Scherf et al.
# Submitted via: ExactAudioCopy v0.99pb4
#
DISCID=8c07150a
DTITLE=George Jones - My Very Special Guests
DYEAR=1900
DGENRE=Country
TTITLE0=Night Life (With Waylon Jennings)
TTITLE1=Bartender's Blues (With James Taylor)
TTITLE2=Here We Are (With Emmylou Harris)
TTITLE3=I've Turned You To Stone (With Linda Ronstadt)
TTITLE4=It Sure Was Good (With Tammy Wynette)
TTITLE5=I Gotta Get Drunk (With Willie Nelson)
TTITLE6=Proud Mary (With Johnny Paycheck)
TTITLE7=Stranger In The House (With Elvis Costello)
TTITLE8=I Still Hold Her Body (But I Think I've Lost Her Mind) (With D
TTITLE8=ennis and Ray Of Dr. Hook)
TTITLE9=Will The Circle Be Unbroken (With Pop And Mavis Staples)
EXTD=
EXTT0=
EXTT1=
EXTT2=
EXTT3=
EXTT4=
EXTT5=
EXTT6=
EXTT7=
EXTT8=
EXTT9=
PLAYORDER=
